<?xml version="1.0" encoding="UTF-8" standalone="no"?>
<svg
   xmlns:dc="http://purl.org/dc/elements/1.1/"
   xmlns:cc="http://creativecommons.org/ns#"
   xmlns:rdf="http://www.w3.org/1999/02/22-rdf-syntax-ns#"
   xmlns:svg="http://www.w3.org/2000/svg"
   xmlns="http://www.w3.org/2000/svg"
   viewBox="0 0 576 576"
   height="576"
   width="576"
   xml:space="preserve"
   id="svg2"
   version="1.1"><metadata
     id="metadata8"><rdf:RDF><cc:Work
         rdf:about=""><dc:format>image/svg+xml</dc:format><dc:type
           rdf:resource="http://purl.org/dc/dcmitype/StillImage" /></cc:Work></rdf:RDF></metadata><defs
     id="defs6"><clipPath
       id="clipPath18"
       clipPathUnits="userSpaceOnUse"><path
         id="path16"
         d="M 0,432 H 432 V 0 H 0 Z" /></clipPath></defs><g
     transform="matrix(1.3333333,0,0,-1.3333333,0,576)"
     id="g10"><g
       id="g12"><g
         clip-path="url(#clipPath18)"
         id="g14"><g
           transform="translate(256.0371,175.0791)"
           id="g20"><path
             id="path22"
             style="fill:#27382e;fill-opacity:1;fill-rule:nonzero;stroke:none"
             d="M 0,0 C 0.066,0.111 0.132,0.222 0.199,0.331 0.497,0.811 0.706,1.329 0.844,1.873 1.013,2.542 1.118,3.219 1.104,3.915 1.081,4.993 1,6.063 0.727,7.111 c -0.413,1.585 -1.223,2.928 -2.463,4.005 -1.31,1.136 -2.848,1.749 -4.553,1.961 -0.856,0.107 -1.714,0.125 -2.576,0.032 -1.039,-0.112 -2.031,-0.374 -2.959,-0.849 -1.917,-0.983 -3.263,-2.497 -4.104,-4.469 -0.495,-1.163 -0.713,-2.387 -0.759,-3.644 -0.024,-0.645 0.017,-1.289 0.094,-1.931 0.114,-0.946 0.334,-1.863 0.7,-2.741 1.139,-2.73 3.811,-5.417 8.249,-5.311 0.623,0.015 1.245,0.087 1.859,0.202 1.285,0.241 2.471,0.742 3.583,1.412 0.664,0.401 1.262,0.898 1.818,1.44 1.501,1.46 2.639,3.167 3.464,5.088 C 3.105,2.364 3.127,2.425 3.143,2.487 3.147,2.502 3.13,2.527 3.116,2.542 3.109,2.549 3.08,2.545 3.073,2.537 2.955,2.386 2.835,2.234 2.721,2.079 2.086,1.216 1.302,0.525 0.35,0.03 0.274,-0.009 0.193,-0.039 0.111,-0.059 0.083,-0.065 0.045,-0.024 0,0 m 1.306,16.317 c -0.088,0.148 -0.189,0.288 -0.287,0.43 -0.09,0.128 -0.129,0.267 -0.129,0.423 0.003,0.883 0.001,1.766 0.003,2.647 0,0.064 0.003,0.135 0.03,0.19 0.025,0.051 0.079,0.108 0.132,0.121 0.102,0.026 0.212,0.03 0.318,0.03 0.474,0.003 0.947,0.002 1.421,0.002 1.893,0 3.788,0 5.682,-0.001 0.193,0 0.386,-0.011 0.58,-0.019 0.079,-0.003 0.163,-0.087 0.171,-0.164 0.006,-0.065 0.015,-0.128 0.017,-0.193 0.003,-0.15 0.002,-0.301 0.002,-0.452 0,-10.115 0,-20.231 -0.001,-30.348 0,-0.214 -0.009,-0.429 -0.016,-0.644 -0.003,-0.079 -0.086,-0.163 -0.165,-0.169 -0.128,-0.008 -0.256,-0.019 -0.385,-0.019 -2.411,-10e-4 -4.822,-10e-4 -7.232,0 -0.129,0 -0.258,0.013 -0.385,0.023 -0.075,0.006 -0.152,0.095 -0.157,0.177 -0.007,0.128 -0.014,0.257 -0.015,0.386 -0.001,0.538 0.001,1.076 -0.002,1.615 0,0.149 -0.014,0.298 -0.022,0.444 -0.055,0.012 -0.108,0.042 -0.134,0.026 -0.146,-0.09 -0.288,-0.186 -0.426,-0.288 -0.87,-0.637 -1.784,-1.203 -2.751,-1.68 -1.222,-0.603 -2.5,-1.048 -3.839,-1.296 -1.21,-0.224 -2.432,-0.321 -3.663,-0.226 -0.601,0.046 -1.201,0.078 -1.799,0.166 -3.435,0.502 -6.412,1.929 -8.838,4.424 -1.96,2.015 -3.278,4.407 -3.992,7.129 -0.452,1.72 -0.61,3.47 -0.571,5.244 0.031,1.403 0.196,2.79 0.563,4.146 1.118,4.136 3.485,7.346 7.151,9.579 1.466,0.892 3.058,1.467 4.741,1.799 1.272,0.25 2.557,0.356 3.851,0.335 0.45,-0.007 0.903,-0.053 1.35,-0.114 1.369,-0.187 2.702,-0.523 3.982,-1.047 1.122,-0.458 2.149,-1.086 3.127,-1.796 0.807,-0.586 1.511,-1.276 2.134,-2.052 0.077,-0.096 0.354,-0.556 0.352,-0.542 0,0.002 0.007,0.007 0.015,0.011 0.008,0.004 0.016,0.007 0.017,0.007 0.026,-0.033 -0.598,1.31 -0.83,1.696" /></g><g
           transform="translate(333.3252,183.2148)"
           id="g24"><path
             id="path26"
             style="fill:#27382e;fill-opacity:1;fill-rule:nonzero;stroke:none"
             d="M 0,0 H 6.317 6.833 C 6.897,0.001 6.962,0.002 7.025,0.005 7.228,0.014 7.303,0.112 7.239,0.292 6.988,1.005 6.66,1.679 6.221,2.296 5.597,3.173 4.796,3.839 3.821,4.294 3.074,4.642 2.285,4.847 1.471,4.941 0.573,5.046 -0.327,5.072 -1.23,4.976 -1.79,4.915 -2.33,4.796 -2.855,4.595 -3.563,4.324 -4.218,3.959 -4.819,3.503 -5.074,3.309 -5.32,3.093 -5.534,2.854 -6.197,2.113 -6.746,1.296 -7.117,0.367 -7.141,0.308 -7.157,0.245 -7.176,0.184 -7.189,0.141 -7.129,0.037 -7.086,0.034 -6.873,0.021 -6.66,0.001 -6.446,0.001 -4.298,-0.001 -2.149,0 0,0 m -9.242,-7.209 c -0.693,0.665 -1.348,1.364 -1.972,2.093 -0.152,0.177 -0.314,0.345 -0.474,0.515 0,0 -0.03,0.01 -0.03,0.01 l 0.049,-0.012 c -0.003,-0.043 -0.02,-0.089 -0.006,-0.126 0.038,-0.099 0.083,-0.198 0.137,-0.29 1.151,-1.957 2.5,-3.761 4.133,-5.347 0.867,-0.843 1.815,-1.583 2.843,-2.221 1.113,-0.689 2.315,-1.132 3.611,-1.314 0.319,-0.046 0.638,-0.106 0.959,-0.126 0.624,-0.04 1.245,-0.013 1.863,0.104 0.849,0.16 1.684,0.359 2.475,0.71 2.104,0.935 3.677,2.435 4.738,4.476 0.089,0.172 0.17,0.347 0.257,0.52 0.055,0.108 0.156,0.139 0.27,0.084 0.098,-0.046 0.194,-0.095 0.289,-0.143 1.99,-1.023 3.98,-2.044 5.968,-3.071 0.149,-0.076 0.329,-0.119 0.414,-0.313 -0.055,-0.104 -0.108,-0.222 -0.178,-0.328 -0.951,-1.414 -1.986,-2.758 -3.178,-3.98 -1.903,-1.951 -4.142,-3.34 -6.755,-4.124 -0.889,-0.267 -1.791,-0.451 -2.713,-0.558 -1.113,-0.128 -2.23,-0.194 -3.35,-0.184 -1.704,0.015 -3.392,0.184 -5.049,0.606 -2.396,0.611 -4.552,1.684 -6.412,3.327 -2.346,2.073 -3.861,4.648 -4.613,7.678 -0.343,1.384 -0.53,2.789 -0.535,4.217 -0.003,0.58 -0.012,1.162 0.018,1.742 0.099,1.991 0.449,3.936 1.204,5.785 1.748,4.279 4.832,7.145 9.209,8.617 0.98,0.329 1.989,0.547 3.016,0.68 1.477,0.194 2.954,0.253 4.443,0.144 1.206,-0.088 2.395,-0.259 3.563,-0.564 1.787,-0.465 3.451,-1.203 4.944,-2.298 2.472,-1.816 4.175,-4.191 5.122,-7.107 0.42,-1.293 0.668,-2.621 0.81,-3.974 0.145,-1.375 0.096,-2.751 0.104,-4.128 10e-4,-0.064 -0.01,-0.131 -0.033,-0.19 -0.012,-0.035 -0.058,-0.08 -0.091,-0.082 -0.237,-0.016 -0.473,-0.03 -0.708,-0.03 -4.65,-0.002 -9.298,-0.001 -13.947,-0.001 -3.013,0 -6.026,0 -9.04,-0.002 -0.214,0 -0.427,-0.016 -0.641,-0.033 -0.025,-0.002 -0.067,-0.062 -0.065,-0.092 0.007,-0.083 0.022,-0.169 0.053,-0.246 0.192,-0.482 0.449,-0.93 0.744,-1.355 0.05,-0.072 0.089,-0.146 0.044,-0.236 0,0 -1.028,0.724 -1.49,1.167" /></g><g
           transform="translate(289.8311,163.2295)"
           id="g28"><path
             id="path30"
             style="fill:#27382e;fill-opacity:1;fill-rule:nonzero;stroke:none"
             d="m 0,0 h -17.367 c -0.215,0 -0.43,0.01 -0.645,0.014 -0.052,10e-4 -0.088,0.023 -0.09,0.073 -0.001,0.039 -0.001,0.09 0.022,0.117 0.137,0.165 0.277,0.328 0.421,0.488 3.116,3.479 6.232,6.956 9.349,10.435 3.188,3.558 6.373,7.119 9.566,10.673 1.467,1.633 4.655,5.077 4.696,5.23 0.004,0.013 -0.02,0.046 -0.031,0.046 C 5.882,27.075 5.838,27.074 5.807,27.056 5.621,26.946 5.437,26.834 5.256,26.72 4.218,26.065 3.181,25.411 2.144,24.758 2.133,24.751 2.123,24.745 2.113,24.739 1.995,24.665 1.876,24.594 1.759,24.521 1.665,24.462 1.152,24.43 1.002,24.43 c -4.52,0 -9.039,-0.001 -13.559,0 -0.797,0 -0.745,-0.064 -0.746,0.717 0,1.98 0,3.959 0.001,5.94 0,0.172 0.007,0.344 0.014,0.516 0.003,0.084 0.079,0.168 0.155,0.175 0.064,0.007 0.128,0.017 0.193,0.018 0.193,0.003 0.386,0.002 0.581,0.002 H 19.47 c 0.236,0 0.473,-0.004 0.709,-0.014 0.032,-10e-4 0.078,-0.037 0.09,-0.068 C 20.281,31.683 20.273,31.628 20.252,31.6 20.188,31.514 20.115,31.434 20.044,31.354 14.254,24.896 8.468,18.437 2.673,11.984 0.731,9.822 -1.234,7.683 -3.188,5.533 -3.318,5.39 -3.446,5.244 -3.569,5.096 -3.588,5.072 -3.574,5.021 -3.57,4.984 c 10e-4,-0.005 0.038,-0.017 0.049,-0.01 0.167,0.097 0.334,0.193 0.498,0.297 1,0.633 2.001,1.264 2.994,1.907 0.209,0.134 0.418,0.21 0.665,0.192 0.129,-0.01 0.259,-0.001 0.387,-0.001 5.445,0 10.89,0 16.334,-10e-4 0.216,0 0.431,-0.002 0.646,-0.008 0.145,-0.004 0.224,-0.09 0.229,-0.251 0.006,-0.129 0.007,-0.257 0.007,-0.386 10e-4,-2.024 10e-4,-4.046 0,-6.07 0,-0.15 -0.006,-0.3 -0.013,-0.451 C 18.22,0.09 18.137,0.013 18.013,0.01 17.776,0.004 17.539,0 17.303,0 Z" /></g><g
           transform="translate(206.8984,189.9775)"
           id="g32"><path
             id="path34"
             style="fill:#27382e;fill-opacity:1;fill-rule:nonzero;stroke:none"
             d="m 0,0 c 0,-8.607 0.002,-17.214 -0.002,-25.821 -0.001,-1.133 0.167,-1 -0.982,-1.003 -2.173,-0.005 -4.346,-0.002 -6.519,-10e-4 -0.194,0 -0.388,10e-4 -0.581,0.008 -0.182,0.006 -0.263,0.095 -0.268,0.288 -0.005,0.172 -0.005,0.344 -0.005,0.516 -0.001,17.343 -0.001,34.686 0,52.03 0,0.214 0.009,0.429 0.018,0.644 0.003,0.08 0.086,0.167 0.161,0.172 0.129,0.009 0.258,0.021 0.386,0.021 2.41,0.001 4.82,0.001 7.23,0 0.128,0 0.257,-0.012 0.385,-0.021 0.075,-0.005 0.154,-0.092 0.16,-0.174 0.007,-0.086 0.015,-0.172 0.016,-0.257 C 0.001,26.208 0,26.014 0,25.821 0,17.214 0,8.606 0,0" /></g><g
           transform="translate(224.7363,189.9102)"
           id="g36"><path
             id="path38"
             style="fill:#27382e;fill-opacity:1;fill-rule:nonzero;stroke:none"
             d="m 0,0 v -25.766 c 0,-0.237 0.002,-0.473 -0.006,-0.71 -0.006,-0.17 -0.044,-0.264 -0.277,-0.276 -0.108,-0.005 -0.216,-0.006 -0.323,-0.006 -2.368,0 -4.736,-0.001 -7.104,10e-4 -0.15,0 -0.3,0.012 -0.45,0.022 -0.073,0.005 -0.16,0.096 -0.169,0.171 -0.007,0.063 -0.017,0.127 -0.019,0.191 -0.003,0.151 -0.002,0.302 -0.002,0.452 v 51.985 c 0,0.194 0,0.388 0.008,0.581 0.007,0.188 0.089,0.265 0.283,0.272 0.129,0.004 0.258,0.005 0.387,0.005 2.325,0 4.65,0 6.975,-0.001 0.172,0 0.343,-0.01 0.514,-0.018 0.079,-0.004 0.159,-0.089 0.165,-0.169 0.007,-0.086 0.016,-0.171 0.017,-0.257 C 0.002,26.283 0,26.09 0,25.896 Z" /></g><g
           transform="translate(362.1768,188.8223)"
           id="g40"><path
             id="path42"
             style="fill:#27382e;fill-opacity:1;fill-rule:nonzero;stroke:none"
             d="m 0,0 c 0.399,0.562 0.821,1.106 1.268,1.631 0.826,0.971 1.741,1.848 2.727,2.653 0.67,0.547 1.41,0.987 2.169,1.392 0.477,0.253 1.008,0.377 1.533,0.488 0.782,0.164 1.574,0.247 2.372,0.25 1.258,0.003 2.483,-0.215 3.678,-0.602 1.027,-0.333 2.004,-0.78 2.944,-1.306 0.037,-0.021 0.073,-0.05 0.095,-0.083 C 16.808,4.39 16.832,4.336 16.82,4.307 16.763,4.168 16.698,4.031 16.626,3.899 15.555,1.935 14.482,-0.029 13.408,-1.992 c -0.082,-0.151 -0.178,-0.293 -0.267,-0.44 -0.026,-0.042 -0.129,-0.061 -0.176,-0.034 -0.148,0.088 -0.294,0.178 -0.443,0.265 -0.668,0.395 -1.367,0.722 -2.119,0.933 C 9.211,-0.934 8.022,-0.953 6.836,-1.284 5.689,-1.604 4.795,-2.272 4.134,-3.259 3.733,-3.854 3.456,-4.507 3.257,-5.19 3.033,-5.956 2.897,-6.74 2.826,-7.535 2.747,-8.415 2.728,-9.297 2.729,-10.18 c 0.003,-4.842 10e-4,-9.686 0,-14.529 0,-0.236 -0.01,-0.473 -0.019,-0.709 -0.003,-0.077 -0.09,-0.156 -0.171,-0.159 -0.15,-0.007 -0.301,-0.015 -0.451,-0.016 h -6.975 c -0.15,0 -0.3,0.006 -0.451,0.014 -0.113,0.006 -0.192,0.091 -0.197,0.212 -0.007,0.172 -0.011,0.344 -0.011,0.516 0,10.181 0,20.363 0.001,30.543 0,0.172 0.005,0.345 0.013,0.516 0.005,0.106 0.099,0.191 0.216,0.197 0.129,0.007 0.257,0.011 0.386,0.011 2.347,10e-4 4.693,0 7.039,10e-4 0.62,0 0.624,0.005 0.62,-0.59 C 2.728,5.376 2.74,4.925 2.717,4.469 2.582,4.319 2.453,4.177 2.324,4.034 1.352,2.955 0.56,1.757 -0.049,0.437 -0.13,0.263 -0.354,-0.349 -0.348,-0.366 -0.345,-0.375 -0.072,-0.103 0,0" /></g><g
           transform="translate(159.0967,188.4756)"
           id="g44"><path
             id="path46"
             style="fill:#27382e;fill-opacity:1;fill-rule:nonzero;stroke:none"
             d="M 0,0 C 0.039,0.005 0.097,-0.006 0.114,0.016 0.262,0.2 0.406,0.388 0.544,0.579 1.62,2.072 2.873,3.398 4.292,4.567 4.978,5.132 5.733,5.586 6.509,6.007 7.003,6.274 7.555,6.399 8.103,6.517 8.819,6.67 9.549,6.74 10.281,6.759 11.342,6.787 12.386,6.641 13.41,6.37 14.686,6.033 15.889,5.517 17.037,4.868 17.218,4.766 17.238,4.692 17.14,4.503 17.09,4.408 17.037,4.314 16.985,4.22 15.913,2.256 14.841,0.291 13.767,-1.672 13.685,-1.821 13.589,-1.964 13.491,-2.104 13.474,-2.13 13.404,-2.145 13.375,-2.131 13.26,-2.074 13.15,-2.007 13.041,-1.939 12.321,-1.5 11.568,-1.14 10.752,-0.913 9.513,-0.569 8.28,-0.606 7.061,-0.98 5.948,-1.322 5.086,-2.01 4.458,-2.989 4.011,-3.685 3.723,-4.447 3.524,-5.245 3.294,-6.167 3.179,-7.106 3.138,-8.054 3.118,-8.505 3.121,-8.958 3.121,-9.41 3.12,-14.404 3.12,-19.398 3.12,-24.392 c 0,-0.215 -0.006,-0.43 -0.013,-0.645 -0.004,-0.11 -0.093,-0.194 -0.21,-0.199 -0.128,-0.006 -0.257,-0.01 -0.387,-0.01 -2.346,0 -4.692,-0.001 -7.039,10e-4 -0.15,0 -0.3,0.01 -0.45,0.018 -0.077,0.004 -0.151,0.089 -0.158,0.174 -0.005,0.065 -0.012,0.129 -0.013,0.194 -0.002,0.193 -0.002,0.386 -0.002,0.581 0,10.031 0,20.062 0,30.093 0,0.237 0.003,0.474 0.009,0.71 0.003,0.139 0.101,0.227 0.252,0.233 0.151,0.005 0.302,0.006 0.452,0.006 h 6.846 c 0.15,0 0.301,-0.002 0.451,-0.007 C 3.009,6.752 3.105,6.662 3.112,6.525 3.117,6.439 3.119,6.354 3.12,6.267 3.121,6.009 3.124,5.75 3.119,5.492 3.115,5.277 3.103,5.063 3.094,4.849 2.957,4.685 2.825,4.517 2.682,4.357 1.516,3.065 0.625,1.604 -0.014,-0.013 -0.013,-0.013 0,-0.047 0,-0.047 Z" /></g><g
           transform="translate(190.6069,178.8076)"
           id="g48"><path
             id="path50"
             style="fill:#27382e;fill-opacity:1;fill-rule:nonzero;stroke:none"
             d="m 0,0 v -14.521 c 0,-0.151 0,-0.302 0,-0.453 0.004,-0.616 -0.004,-0.604 -0.604,-0.604 -2.367,0 -4.733,-0.001 -7.1,10e-4 -0.149,0 -0.298,0.015 -0.447,0.034 -0.033,0.005 -0.073,0.052 -0.086,0.087 -0.022,0.06 -0.032,0.126 -0.033,0.189 -0.005,0.215 -0.005,0.43 -0.005,0.646 -10e-4,9.745 -10e-4,19.491 0,29.237 0,0.258 0.01,0.516 0.019,0.774 0.003,0.083 0.083,0.163 0.163,0.168 0.128,0.006 0.257,0.015 0.386,0.015 2.366,10e-4 4.733,10e-4 7.1,10e-4 0.604,0 0.608,0.02 0.607,-0.6 -0.001,-1.247 0,-2.495 0,-3.744 z" /></g><g
           transform="translate(181.1631,206.6729)"
           id="g52"><path
             id="path54"
             style="fill:#27382e;fill-opacity:1;fill-rule:nonzero;stroke:none"
             d="M 0,0 C 0.001,1.954 0.926,3.347 2.604,4.285 2.743,4.362 2.888,4.387 3.04,4.362 3.273,4.324 3.506,4.282 3.737,4.232 4.625,4.042 5.478,3.754 6.291,3.348 7.349,2.819 8.257,2.114 8.941,1.139 8.977,1.088 9.026,1.046 9.073,1.003 9.083,0.993 9.114,0.992 9.125,1 9.141,1.011 9.158,1.039 9.154,1.054 8.883,2.021 8.431,2.893 7.768,3.65 7.483,3.977 7.158,4.257 6.793,4.491 6.684,4.561 6.572,4.625 6.464,4.694 6.413,4.728 6.356,4.767 6.375,4.835 6.38,4.852 6.456,4.863 6.494,4.855 6.938,4.764 7.365,4.618 7.773,4.422 8.382,4.129 8.913,3.732 9.369,3.233 10.157,2.371 10.572,1.352 10.6,0.189 10.626,-0.876 10.332,-1.857 9.664,-2.7 8.891,-3.673 7.913,-4.35 6.689,-4.631 6.101,-4.766 5.5,-4.82 4.894,-4.785 4.378,-4.756 3.864,-4.711 3.359,-4.595 1.631,-4.198 0.594,-3.113 0.171,-1.41 0.056,-0.947 0.019,-0.477 0,0" /></g><g
           transform="translate(137.2686,219.3696)"
           id="g56"><path
             id="path58"
             style="fill:#be1522;fill-opacity:1;fill-rule:nonzero;stroke:none"
             d="m 0,0 c -2.675,-2.067 -5.948,-3.464 -9.532,-4.498 -16.325,-4.71 -39.115,-1.893 -41.38,-20.64 12.856,14.898 23.172,6.318 45.007,14.213 0.944,0.34 1.907,0.711 2.893,1.115 2.506,0.739 4.734,1.727 6.689,2.919 14.8,9.018 14.061,29.737 0.335,43.275 -0.652,-12.74 -9.696,-18.851 -21.006,-21.789 -7.566,-1.97 -16.146,-2.52 -23.91,-2.692 3.773,1.639 7.346,3.686 10.658,6.263 5.467,4.253 10.229,9.945 14.036,17.581 2.944,-7.403 -0.236,-13.595 -5.049,-19.467 -0.092,-0.109 -0.182,-0.221 -0.275,-0.331 0.253,0.056 0.503,0.113 0.75,0.171 4.062,0.933 7.796,2.012 10.746,3.447 4.428,11.606 1.478,21.627 -8.088,30.229 -3.057,-15.8 -12.586,-25.318 -24.658,-32.375 -2.953,-1.728 -6.06,-3.307 -9.259,-4.793 -6.917,-3.213 -12.927,-8.158 -17.146,-14.51 -0.627,-0.944 -1.206,-1.902 -1.733,-2.866 -2.619,-5.385 -4.085,-11.428 -4.085,-17.805 0,-1.183 0.05,-2.355 0.152,-3.512 1.783,-20.916 19.378,-37.39 40.749,-37.39 19.157,0 35.28,13.238 39.702,31.046 0.784,3.159 1.2,6.459 1.2,9.856 0,0.179 0,0.359 -0.003,0.539 h -10.397 -19.4 l -14.894,-10.395 h 32.664 c -4.251,-12.429 -16.319,-21.264 -30.312,-20.618 -16.042,0.741 -28.853,14.008 -29.064,30.066 -0.003,0.242 -0.004,0.484 -0.001,0.726 0.115,11.267 7.843,21.006 18.682,24.084 6.98,1.982 15.066,2.819 22.774,4.07 5.15,0.838 10.131,1.854 14.499,3.523 7.4,2.824 13.05,7.504 14.797,16.298 C 8.757,12.004 5.762,4.45 0,0" /></g></g></g></g></svg>